<svg width="43" height="29" fill="none" xmlns="http://www.w3.org/2000/svg"><path fill-rule="evenodd" clip-rule="evenodd" d="M36.114 12.586c4.177.913 6.553 4.375 6.627 7.884.042 1.994-.66 4.027-2.203 5.561-1.554 1.546-3.818 2.447-6.646 2.447H10.6c-7.124 0-10.793-6.309-10.298-11.766.253-2.797 1.583-5.557 4.192-7.34 2.362-1.614 5.564-2.288 9.526-1.715C15.676 4.284 17.904 2.07 20.436.92 23.248-.357 26.222-.22 28.78.809c4.457 1.79 8.043 6.517 7.333 11.777ZM21.917 4.183c-1.808.82-3.693 2.621-5.126 6.034a1.984 1.984 0 0 1-2.22 1.173c-3.883-.79-6.457-.152-8.055.94-1.599 1.094-2.474 2.81-2.646 4.706-.355 3.926 2.243 7.858 6.73 7.858h23.292c2.051 0 3.348-.636 4.12-1.403.782-.78 1.17-1.836 1.146-2.946-.046-2.196-1.699-4.513-5.055-4.606-1.308-.036-2.248-1.33-1.827-2.602 1.243-3.758-1.153-7.726-4.83-9.203-1.771-.712-3.72-.773-5.53.049Z" fill="#222"/></svg>