<svg width="43" height="29" viewBox="0 0 43 29" fill="none" xmlns="http://www.w3.org/2000/svg">
<path fill-rule="evenodd" clip-rule="evenodd" d="M36.1137 12.5857C40.291 13.4992 42.6669 16.9608 42.7407 20.4697C42.7826 22.4641 42.0807 24.4968 40.5384 26.0311C38.9842 27.5774 36.72 28.4779 33.8921 28.4779L10.6004 28.4779C3.47617 28.4779 -0.19297 22.1694 0.301776 16.7122C0.555338 13.9154 1.88543 11.1554 4.49357 9.37248C6.85561 7.75777 10.0583 7.08374 14.0195 7.65745C15.6762 4.2844 17.9036 2.06906 20.4356 0.919732C23.2479 -0.356823 26.2223 -0.219225 28.7813 0.808643C33.2384 2.59893 36.8243 7.32597 36.1137 12.5857ZM21.9167 4.18264C20.1087 5.00337 18.2243 6.8044 16.7906 10.2171C16.424 11.0898 15.4872 11.5761 14.5712 11.3898C10.6881 10.6001 8.1138 11.2383 6.5158 12.3307C4.91723 13.4235 4.04226 15.1409 3.87047 17.0358C3.51452 20.9621 6.11348 24.8945 10.6004 24.8945L33.8921 24.8945C35.9431 24.8945 37.2402 24.2579 38.0112 23.4908C38.7942 22.7118 39.1815 21.6551 39.1581 20.5451C39.112 18.3495 37.4593 16.0318 34.1033 15.9391C32.7951 15.903 31.8551 14.6098 32.2762 13.3369C33.519 9.57904 31.1233 5.61094 27.4457 4.13377C25.6749 3.4225 23.7269 3.36098 21.9167 4.18264Z" fill="#222222"></path>
</svg>
