<svg width="32" height="27" viewBox="0 0 32 27" fill="none" xmlns="http://www.w3.org/2000/svg">
<path d="M20 23C19.447 23 19 23.443 19 24.01V25.99C19 26.548 19.443 27 20 27C20.553 27 21 26.557 21 25.99V24.01C21 23.452 20.557 23 20 23Z" fill="#030104"></path>
<path d="M12 23C11.447 23 11 23.443 11 24.01V25.99C11 26.548 11.444 27 12 27C12.553 27 13 26.557 13 25.99V24.01C13 23.452 12.556 23 12 23Z" fill="#030104"></path>
<path d="M24 21C23.447 21 23 21.443 23 22.01V23.99C23 24.548 23.443 25 24 25C24.553 25 25 24.557 25 23.99V22.01C25 21.452 24.557 21 24 21Z" fill="#030104"></path>
<path d="M16 21C15.447 21 15 21.443 15 22.01V23.99C15 24.548 15.444 25 16 25C16.553 25 17 24.557 17 23.99V22.01C17 21.452 16.557 21 16 21Z" fill="#030104"></path>
<path d="M8 21C7.447 21 7 21.443 7 22.01V23.99C7 24.548 7.444 25 8 25C8.553 25 9 24.557 9 23.99V22.01C9 21.452 8.556 21 8 21Z" fill="#030104"></path>
<path d="M27.586 8.212C26.66 5.751 24.284 4 21.5 4C20.859 4 20.24 4.093 19.654 4.266C18.068 1.705 15.233 0 12 0C7.096 0 3.106 3.924 3.002 8.803C1.207 9.842 0 11.783 0 14C0 17.312 2.687 20 6 20H26C29.312 20 32 17.307 32 14C32 11.235 30.13 8.907 27.586 8.212ZM26.003 18H5.997C3.794 18 2 16.209 2 14C2 12.108 3.317 10.518 5.087 10.104C5.029 9.745 5 9.376 5 9C5 5.134 8.134 2 12 2C15.162 2 17.834 4.097 18.702 6.975C19.471 6.364 20.441 6 21.5 6C23.816 6 25.725 7.75 25.973 10H26.003C28.206 10 30 11.791 30 14C30 16.205 28.211 18 26.003 18Z" fill="#030104"></path>
</svg>
