<svg width="32" height="27" fill="none" xmlns="http://www.w3.org/2000/svg"><path d="M20 23c-.553 0-1 .443-1 1.01v1.98c0 .558.443 1.01 1 1.01.553 0 1-.443 1-1.01v-1.98c0-.558-.443-1.01-1-1.01ZM12 23c-.553 0-1 .443-1 1.01v1.98c0 .558.444 1.01 1 1.01.553 0 1-.443 1-1.01v-1.98c0-.558-.444-1.01-1-1.01ZM24 21c-.553 0-1 .443-1 1.01v1.98c0 .558.443 1.01 1 1.01.553 0 1-.443 1-1.01v-1.98c0-.558-.443-1.01-1-1.01ZM16 21c-.553 0-1 .443-1 1.01v1.98c0 .558.444 1.01 1 1.01.553 0 1-.443 1-1.01v-1.98c0-.558-.443-1.01-1-1.01ZM8 21c-.553 0-1 .443-1 1.01v1.98c0 .558.444 1.01 1 1.01.553 0 1-.443 1-1.01v-1.98C9 21.452 8.556 21 8 21ZM27.586 8.212a6.504 6.504 0 0 0-7.932-3.946A9 9 0 0 0 3.002 8.803 6.002 6.002 0 0 0 0 14c0 3.312 2.687 6 6 6h20c3.312 0 6-2.693 6-6a6.002 6.002 0 0 0-4.414-5.788ZM26.003 18H5.997a4.001 4.001 0 0 1-.91-7.896 7 7 0 0 1 13.615-3.129A4.5 4.5 0 0 1 25.973 10h.03a4 4 0 0 1 0 8Z" fill="#030104"/></svg>