<svg><symbol id="loops" viewBox="0 0 20 20" fill="none" xmlns="http://www.w3.org/2000/svg"><path fill-rule="evenodd" clip-rule="evenodd" d="M14.2 13.02A7.503 7.503 0 1 0 13.02 14.2l4.722 4.723a.834.834 0 1 0 1.18-1.179l-4.724-4.723Zm-5.863 1.161a5.844 5.844 0 1 1 0-11.689 5.844 5.844 0 0 1 0 11.69Z" fill="#222"/></symbol><symbol id="sunrise" viewBox="0 0 49 33" fill="none" xmlns="http://www.w3.org/2000/svg"><path d="M24.113 7.613c.756 0 1.274-.504 1.274-1.273V1.273C25.387.517 24.883 0 24.113 0c-.769 0-1.273.504-1.273 1.273V6.34c0 .77.756 1.273 1.273 1.273ZM40.852 24.1c0 .756.504 1.273 1.273 1.273h5.067c.756 0 1.273-.504 1.273-1.273 0-.77-.504-1.273-1.273-1.273h-5.067c-.77.013-1.273.769-1.273 1.273ZM37.55 12.441l3.554-3.554a1.234 1.234 0 0 0 0-1.778 1.234 1.234 0 0 0-1.777 0l-3.555 3.555a1.234 1.234 0 0 0 0 1.777c.517.504 1.525.504 1.777 0ZM10.412 25.373h6.592l7.361-6.34 7.362 6.34h6.34V24.1c0-7.613-6.34-13.953-13.954-13.953-7.613 0-13.953 6.34-13.953 13.953 0 .517 0 .77.252 1.273Z" fill="#222"/><path d="M46.94 30.453H32.987l-8.874-7.613-8.873 7.613H1.525c-.756 0-1.273.504-1.273 1.274C.252 32.496.756 33 1.525 33h15.479l3.037-2.533 4.563-3.807 4.563 3.807L32.217 33h15.479c.756 0 1.273-.504 1.273-1.273-.504-.77-1.273-1.274-2.03-1.274ZM1.273 25.373H6.34c.756 0 1.273-.504 1.273-1.273 0-.77-.504-1.273-1.273-1.273H1.273C.517 22.827 0 23.583 0 24.1c.013.77.517 1.273 1.273 1.273ZM10.664 12.441a1.234 1.234 0 0 0 1.777 0 1.234 1.234 0 0 0 0-1.777L8.887 7.109a1.234 1.234 0 0 0-1.778 0 1.234 1.234 0 0 0 0 1.778l3.555 3.554Z" fill="#222"/></symbol><symbol id="sunset" viewBox="0 0 45 38" fill="none" xmlns="http://www.w3.org/2000/svg"><path d="M22.371 7.067c.702 0 1.182-.468 1.182-1.182V1.182C23.553.48 23.085 0 22.371 0s-1.182.468-1.182 1.182v4.703c.012.714.48 1.182 1.182 1.182ZM34.855 11.549l3.3-3.3a1.145 1.145 0 0 0 0-1.65 1.145 1.145 0 0 0-1.65 0l-3.3 3.3a1.145 1.145 0 0 0 0 1.65 1.145 1.145 0 0 0 1.65 0ZM9.419 23.553h25.904v-1.182c0-7.067-5.885-12.952-12.952-12.952S9.419 15.304 9.419 22.37v1.182ZM37.687 22.383c0 .702.468 1.182 1.182 1.182h4.703c.702 0 1.182-.467 1.182-1.182 0-.714-.467-1.182-1.182-1.182H38.87c-.48 0-1.182.702-1.182 1.182ZM43.572 28.268H29.204l-2.832 2.352-4.235 3.534-3.767-3.534-2.82-2.352H1.182c-.468 0-1.182.468-1.182 1.183 0 .714.702 1.181 1.182 1.181h12.952l8.237 7.068 8.237-7.068H43.56c.702 0 1.182-.467 1.182-1.181 0-.715-.468-1.183-1.17-1.183ZM9.899 11.549a1.145 1.145 0 0 0 1.65 0 1.145 1.145 0 0 0 0-1.65l-3.3-3.3a1.145 1.145 0 0 0-1.65 0 1.145 1.145 0 0 0 0 1.65l3.3 3.3ZM1.182 23.553h4.703c.468 0 1.182-.468 1.182-1.182 0-.468-.468-1.182-1.182-1.182H1.182C.48 21.189 0 21.891 0 22.371c.012.714.48 1.182 1.182 1.182Z" fill="#222"/></symbol><symbol id="wind" viewBox="0 0 42 32" fill="none" xmlns="http://www.w3.org/2000/svg"><path d="M27.994 6.222C27.994 2.798 25.197 0 21.773 0S15.55 2.798 15.55 6.222h3.107a3.117 3.117 0 0 1 3.107-3.107 3.117 3.117 0 0 1 3.107 3.107 3.117 3.117 0 0 1-3.107 3.107H3.107v3.107h18.666c3.424.016 6.221-2.79 6.221-6.214Z" fill="#222"/><path d="M35.77 6.222c-3.424 0-6.222 2.798-6.222 6.222h3.115a3.117 3.117 0 0 1 3.107-3.107 3.117 3.117 0 0 1 3.107 3.107 3.119 3.119 0 0 1-3.107 3.115H0v3.107h35.778c3.424 0 6.222-2.798 6.222-6.222 0-3.424-2.806-6.222-6.23-6.222ZM31.11 21.78H9.329v3.108h21.78c.936 0 1.554.618 1.554 1.553 0 .936-.618 1.554-1.553 1.554-.936 0-1.554-.619-1.554-1.554H26.45c0 2.489 2.025 4.669 4.669 4.669 2.643 0 4.668-2.026 4.668-4.669s-2.033-4.66-4.676-4.66Z" fill="#222"/></symbol><symbol id="humidity" viewBox="0 0 31 32" fill="none" xmlns="http://www.w3.org/2000/svg"><path d="M15.5 32c3.997 0 6.2-2.16 6.2-6.08 0-5.189-5.017-9.393-5.231-9.57A1.52 1.52 0 0 0 15.5 16a1.52 1.52 0 0 0-.969.35c-.214.177-5.231 4.381-5.231 9.57 0 3.92 2.203 6.08 6.2 6.08Zm0-12.222a9.95 9.95 0 0 1 3.1 6.142c0 1.78-.52 2.88-3.1 2.88s-3.1-1.1-3.1-2.88a9.95 9.95 0 0 1 3.1-6.142ZM7.169.35A1.52 1.52 0 0 0 6.2 0a1.52 1.52 0 0 0-.969.351C5.017.527 0 4.731 0 9.921 0 13.84 2.203 16 6.2 16c3.997 0 6.2-2.16 6.2-6.08C12.4 4.73 7.383.526 7.169.35ZM6.2 12.801c-2.58 0-3.1-1.101-3.1-2.88a9.95 9.95 0 0 1 3.1-6.143A9.95 9.95 0 0 1 9.3 9.92c0 1.78-.52 2.88-3.1 2.88ZM25.769.35A1.52 1.52 0 0 0 24.8 0a1.52 1.52 0 0 0-.969.351c-.214.176-5.231 4.38-5.231 9.57 0 3.92 2.202 6.08 6.2 6.08 3.997 0 6.2-2.16 6.2-6.08C31 4.73 25.983.526 25.769.35Zm-.969 12.45c-2.58 0-3.1-1.101-3.1-2.88a9.95 9.95 0 0 1 3.1-6.143 9.95 9.95 0 0 1 3.1 6.142c0 1.78-.52 2.88-3.1 2.88Z" fill="#000"/></symbol><symbol id="search" viewBox="0 0 20 20" fill="none" xmlns="http://www.w3.org/2000/svg"><path fill-rule="evenodd" clip-rule="evenodd" d="M14.2 13.02A7.503 7.503 0 1 0 13.02 14.2l4.722 4.723a.834.834 0 1 0 1.18-1.179l-4.724-4.723Zm-5.863 1.161a5.844 5.844 0 1 1 0-11.689 5.844 5.844 0 0 1 0 11.69Z" fill="#222"/></symbol><symbol id="heart" viewBox="0 0 25 23" fill="none" xmlns="http://www.w3.org/2000/svg"><path fill-rule="evenodd" clip-rule="evenodd" d="M3.989 5.754c-.726 1.192-.965 2.846-.519 4.555.16.615.627 1.406 1.366 2.316.725.893 1.65 1.825 2.63 2.72 1.943 1.775 4.035 3.341 5.034 4.065 1-.724 3.09-2.29 5.034-4.065.98-.895 1.905-1.828 2.63-2.72.739-.91 1.205-1.7 1.366-2.316.446-1.709.207-3.363-.519-4.555-.708-1.164-1.89-1.92-3.511-1.92-1.41 0-2.403.998-3.106 2.345a9.973 9.973 0 0 0-.712 1.804 9.993 9.993 0 0 0-.153.596c-.112.5-.715.525-1.029.525-.314 0-.918-.03-1.029-.525a9.993 9.993 0 0 0-.153-.596 9.973 9.973 0 0 0-.712-1.804C9.903 4.832 8.91 3.833 7.5 3.833c-1.62 0-2.803.757-3.511 1.92ZM12.5 5.53c.034-.07.07-.139.106-.209.797-1.528 2.304-3.404 4.894-3.404 2.38 0 4.197 1.16 5.239 2.871 1.024 1.683 1.285 3.862.731 5.986-.262 1.007-.935 2.052-1.728 3.028-.808.995-1.81 2-2.829 2.931-2.039 1.863-4.217 3.49-5.232 4.224-.7.507-1.661.507-2.362 0-1.015-.734-3.193-2.361-5.233-4.224-1.019-.931-2.02-1.936-2.828-2.93-.793-.977-1.466-2.023-1.728-3.029-.554-2.124-.293-4.303.731-5.986C3.303 3.077 5.121 1.917 7.5 1.917c2.59 0 4.097 1.876 4.894 3.404.037.07.072.14.106.209Z" fill="#fff"/></symbol></svg>